<?xml version="1.0" standalone="no"?>
<!DOCTYPE svg PUBLIC "-//W3C//DTD SVG 20010904//EN"
 "http://www.w3.org/TR/2001/REC-SVG-20010904/DTD/svg10.dtd">
<svg version="1.0" xmlns="http://www.w3.org/2000/svg"
 width="4675.000000pt" height="4676.000000pt" viewBox="0 0 4675.000000 4676.000000"
 preserveAspectRatio="xMidYMid meet">

<g transform="translate(0.000000,4676.000000) scale(0.100000,-0.100000)"
fill="#000000" stroke="none">
<path d="M17887 34315 c-370 -60 -691 -226 -948 -492 -283 -292 -443 -635
-488 -1045 -35 -314 25 -666 161 -947 37 -77 42 -94 42 -161 1 -65 -3 -82 -29
-129 -16 -29 -47 -68 -69 -87 -81 -69 1 -66 -1358 -58 -1082 6 -1233 5 -1310
-9 -48 -9 -100 -23 -117 -32 -46 -23 -101 -83 -125 -134 l-21 -46 -3 -1397 -2
-1397 -39 -30 c-50 -40 -110 -61 -173 -61 -39 0 -77 12 -172 54 -66 30 -155
66 -197 80 -366 118 -779 105 -1149 -39 -168 -65 -289 -128 -450 -235 -152
-102 -257 -235 -383 -486 -105 -210 -182 -461 -207 -675 -18 -154 -8 -434 20
-574 141 -705 688 -1248 1377 -1365 82 -14 162 -20 278 -20 264 0 465 44 700
153 94 44 119 51 170 51 73 0 137 -26 188 -78 l37 -37 0 -1392 c0 -766 3
-1402 6 -1413 l6 -22 41 24 c50 29 85 39 203 59 78 14 230 15 1300 9 l1211 -7
34 21 c81 50 87 119 21 262 -98 211 -155 451 -168 705 -18 330 88 739 269
1048 305 517 814 848 1396 907 807 81 1524 -314 1877 -1034 129 -265 204 -574
204 -844 0 -267 -64 -559 -176 -798 -26 -57 -37 -94 -38 -131 -1 -48 2 -56 37
-90 l37 -38 1253 0 c1383 0 1353 1 1471 -63 48 -26 56 -28 62 -13 5 9 11 640
14 1403 l5 1387 30 31 c45 47 123 80 191 80 47 0 76 -9 164 -49 134 -62 260
-104 393 -133 140 -30 470 -33 622 -4 516 96 961 434 1200 911 220 439 250
925 89 1415 -82 248 -257 565 -372 672 -125 117 -439 291 -653 362 -423 140
-855 121 -1242 -55 -62 -28 -130 -55 -152 -60 -70 -18 -154 8 -225 67 l-32 27
7 1372 c6 1047 5 1383 -4 1421 -15 63 -69 136 -124 168 -94 55 -102 56 -1438
56 -1393 0 -1284 -7 -1375 85 -94 93 -109 216 -44 344 237 470 239 1071 5
1557 -232 482 -671 827 -1193 936 -130 27 -512 34 -645 13z"/>
<path d="M27105 25179 c-339 -41 -653 -180 -908 -403 -584 -511 -761 -1358
-432 -2075 25 -55 48 -122 52 -149 12 -107 -56 -226 -161 -279 l-51 -26 -1255
4 c-1010 3 -1268 1 -1323 -10 -80 -16 -148 -57 -189 -116 -25 -36 -27 -44 -18
-75 7 -24 11 -500 10 -1469 0 -789 -2 -1436 -4 -1438 -2 -2 -36 3 -77 11 -64
12 -82 12 -128 0 -59 -15 -94 -11 -166 18 -45 19 -62 20 -175 13 -69 -4 -136
-8 -150 -8 -14 -1 -79 7 -145 17 -90 14 -147 17 -228 12 -385 -23 -716 -173
-992 -450 -234 -234 -372 -492 -442 -825 -23 -111 -27 -150 -27 -321 -1 -164
3 -213 21 -305 43 -213 104 -380 210 -585 83 -160 141 -246 198 -299 116 -107
402 -261 600 -324 143 -46 245 -66 385 -76 109 -8 351 2 372 15 5 3 60 -2 121
-11 l112 -18 91 42 c109 49 175 54 254 20 43 -18 55 -20 100 -10 28 6 53 11
56 11 2 0 4 -670 4 -1490 l-1 -1490 22 -29 c11 -16 34 -39 50 -50 72 -53 8
-51 1463 -51 1513 0 1419 -4 1501 71 90 83 115 227 58 338 -103 198 -144 285
-168 351 -189 532 -119 1114 200 1656 65 111 205 259 336 357 194 144 502 268
789 319 125 22 394 17 530 -10 258 -52 574 -187 745 -320 128 -99 271 -251
327 -347 312 -535 384 -1117 203 -1634 -36 -102 -113 -267 -161 -343 -78 -123
-59 -289 42 -378 75 -66 51 -63 699 -72 325 -4 950 -7 1391 -6 l801 3 48 30
c56 35 109 98 126 153 9 27 13 399 18 1427 7 1538 0 1411 73 1461 101 71 163
70 322 0 219 -98 365 -137 589 -157 388 -34 800 86 1122 330 78 58 244 220
305 296 330 416 454 950 345 1490 -69 340 -254 725 -433 897 -182 176 -558
360 -877 428 -143 31 -419 38 -571 16 -156 -23 -304 -67 -452 -134 -116 -52
-133 -57 -197 -57 -78 1 -130 22 -179 73 l-28 30 3 1399 c4 1348 3 1399 -15
1433 -25 48 -84 108 -126 130 -20 10 -77 25 -128 34 -81 14 -242 16 -1317 16
-1219 0 -1225 0 -1269 21 -99 46 -166 148 -166 252 0 48 9 78 49 170 69 161
96 238 125 367 112 505 12 1014 -282 1430 -81 115 -278 314 -387 391 -219 155
-439 248 -700 295 -108 19 -426 27 -540 13z"/>
<path d="M17961 25059 c-176 -21 -349 -75 -518 -164 -147 -76 -251 -153 -378
-280 -278 -278 -433 -615 -477 -1037 -25 -246 31 -553 145 -798 58 -124 70
-172 64 -253 -14 -187 -130 -337 -301 -389 l-70 -21 -1216 6 c-862 5 -1232 4
-1275 -4 -85 -16 -122 -34 -145 -71 -20 -33 -20 -53 -20 -1441 l0 -1408 -50
-53 c-60 -64 -142 -110 -228 -127 -86 -18 -167 -3 -290 55 -229 107 -415 150
-657 150 -280 0 -519 -59 -785 -195 -128 -65 -275 -161 -334 -217 -104 -100
-267 -394 -340 -613 -171 -518 -105 -1057 182 -1484 290 -431 760 -685 1264
-685 242 0 445 45 663 148 l120 57 100 0 c88 0 107 -3 158 -27 76 -36 127 -77
171 -137 l36 -49 0 -1396 c0 -1528 -4 -1436 59 -1489 l33 -27 1306 1 c719 0
1333 4 1364 8 132 16 163 129 76 272 -85 140 -172 369 -212 558 -104 490 -14
996 264 1491 57 101 80 130 195 246 144 145 226 209 360 283 236 131 500 218
765 250 540 68 1209 -191 1559 -602 98 -115 201 -303 286 -520 220 -566 184
-1187 -100 -1687 -25 -44 -50 -102 -57 -129 -9 -42 -8 -54 8 -87 10 -21 32
-47 47 -58 28 -21 32 -21 1380 -24 1312 -2 1353 -2 1383 17 68 42 64 -48 64
1356 l0 1266 -107 -6 c-85 -5 -132 -2 -222 13 -62 11 -119 19 -125 16 -6 -2
-66 -8 -133 -13 -415 -33 -858 96 -1276 372 -167 111 -251 208 -380 442 -218
395 -320 862 -276 1263 71 662 473 1228 1071 1512 311 147 687 203 980 146 46
-9 86 -10 125 -4 32 4 124 9 206 9 l147 2 0 1256 c0 1226 -1 1257 -20 1288
-24 40 -42 49 -130 68 -61 13 -229 14 -1283 8 -950 -5 -1224 -4 -1263 6 -182
46 -308 194 -329 387 -8 76 5 131 61 257 109 242 148 422 149 682 0 207 -19
325 -84 524 -196 595 -704 1017 -1303 1081 -112 12 -300 11 -407 -1z"/>
</g>
</svg>
